<svg xmlns="http://www.w3.org/2000/svg" width="24" height="24" viewBox="0 0 24 24">
  <path fill="#E2761B" d="M21.14 2L13.09 7.86l1.48-3.57L21.14 2z"/>
  <path fill="#E4761B" d="M2.86 2l7.97 5.92-1.41-3.63L2.86 2z"/>
  <path fill="#E4761B" d="M18.2 15.68l-2.18 3.34 4.67 1.29 1.34-4.56-3.83-.07z"/>
  <path fill="#E4761B" d="M1.99 15.75l1.33 4.56 4.67-1.29-2.18-3.34-3.82.07z"/>
  <path fill="#D7C1B3" d="M7.72 10.44l-1.31 1.98 4.67.21-.16-5.03-3.2 2.84z"/>
  <path fill="#D7C1B3" d="M16.28 10.44l-3.24-2.9-.12 5.09 4.67-.21-1.31-1.98z"/>
  <path fill="#233447" d="M7.99 19.02l2.82-1.38-2.43-1.9-.39 3.28z"/>
  <path fill="#233447" d="M13.19 17.64l2.82 1.38-.39-3.28-2.43 1.9z"/>
  <path fill="#CD6116" d="M8.37 15.1l-.33 2.65 2.18-3.34-1.85.69z"/>
  <path fill="#CD6116" d="M15.63 15.1l-1.85-.69 2.18 3.34-.33-2.65z"/>
  <path fill="#E4751F" d="M8.04 19.02l.39-3.28-2.44.07 2.05 3.21z"/>
  <path fill="#E4751F" d="M15.57 15.74l.39 3.28 2.05-3.21-2.44-.07z"/>
  <path fill="#F6851B" d="M16.02 14.41l-4.67.21.43 2.4 1.85-.69 2.39-1.92z"/>
  <path fill="#F6851B" d="M7.98 14.41l2.39 1.92 1.85.69.43-2.4-4.67-.21z"/>
  <path fill="#C0AD9E" d="M16.02 19.02l-2.82-1.38-.24 1.85-.03.78 3.09-1.25z"/>
  <path fill="#C0AD9E" d="M7.99 19.02l3.09 1.25-.03-.78-.24-1.85-2.82 1.38z"/>
  <path fill="#161616" d="M11.12 14.87l-.42 2.15.53-2.15h-.11z"/>
  <path fill="#161616" d="M12.88 14.87h-.11l.53 2.15-.42-2.15z"/>
  <path fill="#763D16" d="M13.19 17.64l.24-1.85-2.15.1 1.91 1.75z"/>
  <path fill="#763D16" d="M10.81 15.79l.24 1.85 1.91-1.75-2.15-.1z"/>
</svg> 