<svg width="24" height="24" viewBox="0 0 24 24" fill="none" xmlns="http://www.w3.org/2000/svg">
  <path d="M5.0558 9.62429C8.36696 6.31312 13.6331 6.31312 16.9443 9.62429L17.3926 10.0726C17.5857 10.2657 17.5857 10.5823 17.3926 10.7754L16.1359 12.0321C16.0394 12.1286 15.8811 12.1286 15.7846 12.0321L15.1657 11.4132C12.8971 9.14459 9.10297 9.14459 6.83435 11.4132L6.17573 12.0718C6.07923 12.1683 5.92089 12.1683 5.82439 12.0718L4.56772 10.8151C4.37464 10.622 4.37464 10.3054 4.56772 10.1123L5.0558 9.62429ZM19.4412 12.1214L20.5574 13.2376C20.7505 13.4307 20.7505 13.7473 20.5574 13.9404L15.4772 19.0206C15.2841 19.2137 14.9675 19.2137 14.7744 19.0206L11.1656 15.4118C11.1174 15.3636 11.0382 15.3636 10.99 15.4118L7.38117 19.0206C7.18809 19.2137 6.87147 19.2137 6.67839 19.0206L1.59821 13.9404C1.40513 13.7473 1.40513 13.4307 1.59821 13.2376L2.71444 12.1214C2.90752 11.9283 3.22414 11.9283 3.41722 12.1214L7.02605 15.7302C7.07425 15.7784 7.15347 15.7784 7.20167 15.7302L10.8105 12.1214C11.0036 11.9283 11.3202 11.9283 11.5133 12.1214L15.1221 15.7302C15.1703 15.7784 15.2495 15.7784 15.2977 15.7302L18.9066 12.1214C19.0996 11.9283 19.4163 11.9283 19.4412 12.1214Z" fill="#3B99FC"/>
</svg> 